<svg xmlns="http://www.w3.org/2000/svg" style="display: none;">
<symbol id="icon-5mods" viewBox="0 0 256 256">
<g class="nc-icon-wrapper">
  <path
     style="fill:#20ba4e"
     d="M 106.10315,252.58325 C 69.830344,246.01042 37.757568,223.43261 19.33409,191.50173 -10.130154,140.43538 -0.93337818,76.673978 41.745623,36.122193 59.564582,19.191364 79.651495,8.7602947 104.56625,3.4996394 c 11.59856,-2.4489886 35.84769,-2.4489886 47.44625,0 24.91476,5.2606553 45.00167,15.6917246 62.82063,32.6225536 42.679,40.551785 51.87577,104.313187 22.41153,155.379537 -18.62569,32.28134 -50.75871,54.71542 -87.58568,61.14909 -10.91702,1.90719 -32.84563,1.87318 -43.55583,-0.0675 z m 7.22936,-45.48115 c 17.17972,-4.58981 31.43102,-18.5987 39.45133,-38.78024 9.03179,-22.72674 8.18117,-38.19993 -2.70045,-49.12265 -6.27664,-6.30034 -12.38842,-8.30672 -23.14532,-7.59819 -4.4215,0.29123 -9.06637,0.84999 -10.32193,1.24168 -2.02736,0.63246 -1.53401,-0.71819 4.4086,-12.06951 3.6803,-7.029901 8.04362,-15.182009 9.69631,-18.115772 l 3.00488,-5.334122 20.83724,-5.274913 c 11.46049,-2.901207 24.13753,-5.635465 28.17122,-6.076136 6.31345,-0.689737 7.37412,-1.082834 7.62259,-2.825094 0.79957,-5.606429 -9.17666,-13.355173 -17.1943,-13.355173 -2.27203,0 -12.07477,2.031001 -21.78387,4.513339 -9.70908,2.482352 -22.76818,5.286211 -29.02022,6.230821 -10.8918,1.645632 -11.3567,1.813995 -11.11342,4.02477 0.13964,1.269006 1.14101,3.557842 2.22526,5.086283 l 1.97138,2.778993 -7.18128,14.728052 C 95.921089,112.4612 94.194652,117.3945 94.190747,127.35858 c -0.0025,7.13517 0.343565,9.07538 2.023175,11.33354 3.847178,5.17232 5.226238,5.3142 8.686368,0.89363 11.34765,-14.49747 23.27628,-21.03059 31.04052,-17.00037 9.72979,5.05046 5.65981,33.53983 -7.58921,53.12355 -11.27064,16.65944 -27.05343,25.81008 -36.117888,20.9406 -8.363455,-4.49289 -9.304447,-22.47597 -2.01266,-38.46346 2.896038,-6.34968 2.325411,-7.75338 -2.762384,-6.79531 -16.175617,3.04602 -22.957106,29.29317 -11.625435,44.99519 7.192704,9.96672 23.191483,14.53867 37.499277,10.71615 z"
     id="path4708"
     inkscape:connector-curvature="0" />
</g>
</symbol>
</svg>
